<svg width="160" height="37" viewBox="0 0 160 37" fill="none" xmlns="http://www.w3.org/2000/svg">
<style>
  path {
      fill: #000;
  }
  @media (prefers-color-scheme: dark) {
      path {
          fill: #fff;
      }
  }
</style>
<path d="M20.4718 6.70105C20.2803 8.63509 20.1846 10.3785 20.1846 11.9311C20.1846 13.2931 20.2256 14.41 20.3077 15.2817H19.3641C19.1453 13.1842 18.8718 11.6315 18.5436 10.6236C18.2154 9.58849 17.641 8.83939 16.8205 8.37631C16 7.88599 14.7419 7.64083 13.0461 7.64083H10.4615C9.4769 7.64083 8.75212 7.72255 8.28716 7.88599C7.84956 8.02219 7.5487 8.32183 7.3846 8.78492C7.2205 9.248 7.13845 9.99709 7.13845 11.0322V21.0838H10.1333C11.0906 21.0838 11.829 20.8659 12.3487 20.43C12.8684 19.967 13.2102 19.4358 13.3743 18.8365C13.5658 18.21 13.7162 17.4336 13.8256 16.5075L13.9487 15.6903H14.8923C14.8102 16.8343 14.7692 18.1146 14.7692 19.5311V21.4924C14.7692 22.8816 14.8513 24.8157 15.0154 27.2945H14.0718C14.0444 27.1038 13.9624 26.4501 13.8256 25.3332C13.6889 24.1892 13.306 23.3311 12.6769 22.7591C12.0752 22.187 11.2273 21.901 10.1333 21.901H7.13845V31.2988C7.13845 32.3339 7.24785 33.083 7.46665 33.5461C7.68546 34.0092 8.06836 34.3225 8.61537 34.4859C9.16238 34.6493 10.0513 34.7583 11.282 34.8128V35.63C9.85981 35.5483 7.84956 35.5074 5.25127 35.5074C2.89914 35.5074 1.14872 35.5483 0 35.63V34.8128C0.984613 34.7583 1.69572 34.6493 2.13333 34.4859C2.59829 34.3225 2.91282 34.0092 3.07692 33.5461C3.24102 33.083 3.32307 32.3339 3.32307 31.2988V11.0322C3.32307 9.99709 3.24102 9.248 3.07692 8.78492C2.91282 8.32183 2.59829 8.00857 2.13333 7.84513C1.69572 7.68169 0.984613 7.57273 0 7.51825V6.70105C2.68034 6.78277 6.64614 6.82363 11.8974 6.82363C15.9179 6.82363 18.776 6.78277 20.4718 6.70105Z"/>
<path d="M33.8188 11.6043C32.8342 11.6587 32.1095 11.7677 31.6445 11.9311C31.2069 12.0946 30.906 12.4078 30.7419 12.8709C30.5778 13.334 30.4958 14.0831 30.4958 15.1182V31.2988C30.4958 32.3339 30.5778 33.083 30.7419 33.5461C30.906 34.0092 31.2069 34.3225 31.6445 34.4859C32.1095 34.6493 32.8342 34.7583 33.8188 34.8128V35.63C32.5607 35.5483 30.824 35.5074 28.6086 35.5074C26.2565 35.5074 24.506 35.5483 23.3573 35.63V34.8128C24.3419 34.7583 25.0531 34.6493 25.4907 34.4859C25.9556 34.3225 26.2701 34.0092 26.4342 33.5461C26.5983 33.083 26.6804 32.3339 26.6804 31.2988V15.1182C26.6804 14.0831 26.5983 13.334 26.4342 12.8709C26.2701 12.4078 25.9556 12.0946 25.4907 11.9311C25.0531 11.7677 24.3419 11.6587 23.3573 11.6043V10.7871C24.506 10.8688 26.2565 10.9096 28.6086 10.9096C30.7966 10.9096 32.5334 10.8688 33.8188 10.7871V11.6043Z"/>
<path d="M46.039 10.215C47.2424 10.215 48.186 10.3512 48.8698 10.6236C49.5809 10.8688 50.3057 11.2365 51.0441 11.7268C51.6458 12.1082 52.1108 12.2989 52.439 12.2989C52.6852 12.2989 52.8766 12.1627 53.0134 11.8903C53.1501 11.5906 53.2595 11.1276 53.3416 10.501H54.2852C54.1484 11.9175 54.08 14.4236 54.08 18.0193H53.1364C52.9723 16.058 52.3296 14.3964 51.2082 13.0344C50.1142 11.6724 48.5142 10.9914 46.4082 10.9914C44.9587 10.9914 43.7553 11.3727 42.798 12.1354C41.8681 12.8982 41.4031 13.8652 41.4031 15.0365C41.4031 15.8809 41.6083 16.6164 42.0185 17.2429C42.4561 17.8695 43.0031 18.4143 43.6595 18.8774C44.3433 19.3132 45.3006 19.858 46.5313 20.5118L47.8852 21.2472C49.5809 22.1462 50.9347 22.9497 51.9467 23.658C52.986 24.3662 53.8202 25.1834 54.4493 26.1096C55.0783 27.0085 55.3928 28.0572 55.3928 29.2558C55.3928 31.4623 54.586 33.1784 52.9723 34.4042C51.386 35.6027 49.3894 36.202 46.9826 36.202C45.6698 36.202 44.5894 36.0658 43.7416 35.7934C42.9211 35.521 42.1279 35.1533 41.3621 34.6902C40.7604 34.3088 40.2954 34.1182 39.9672 34.1182C39.7211 34.1182 39.5296 34.268 39.3929 34.5676C39.2561 34.84 39.1467 35.2895 39.0647 35.916H38.1211C38.2305 34.5812 38.2852 31.5848 38.2852 26.9268H39.2288C39.4202 29.4601 40.104 31.5031 41.2801 33.0558C42.4561 34.6085 44.2612 35.3848 46.6954 35.3848C48.0629 35.3848 49.239 35.0035 50.2236 34.2407C51.2356 33.4508 51.7416 32.2931 51.7416 30.7676C51.7416 29.8687 51.4817 29.0787 50.9621 28.3977C50.4424 27.6895 49.745 27.063 48.8698 26.5182C47.9946 25.9734 46.7775 25.2924 45.2185 24.4752C42.9758 23.3311 41.2664 22.187 40.0903 21.0429C38.9142 19.8989 38.3262 18.4143 38.3262 16.5892C38.3262 14.5734 39.0647 13.0071 40.5416 11.8903C42.0459 10.7734 43.8783 10.215 46.039 10.215Z"/>
<path d="M69.6762 11.6043C68.6915 11.6587 67.9667 11.7677 67.5018 11.9311C67.0642 12.0946 66.7633 12.4078 66.5992 12.8709C66.4351 13.334 66.3531 14.0831 66.3531 15.1182V31.2988C66.3531 32.3339 66.4351 33.083 66.5992 33.5461C66.7633 34.0092 67.0642 34.3225 67.5018 34.4859C67.9667 34.6493 68.6915 34.7583 69.6762 34.8128V35.63C68.418 35.5483 66.6813 35.5074 64.4659 35.5074C62.1138 35.5074 60.3633 35.5483 59.2146 35.63V34.8128C60.1992 34.7583 60.9104 34.6493 61.348 34.4859C61.8129 34.3225 62.1274 34.0092 62.2915 33.5461C62.4556 33.083 62.5377 32.3339 62.5377 31.2988V15.1182C62.5377 14.0831 62.4556 13.334 62.2915 12.8709C62.1274 12.4078 61.8129 12.0946 61.348 11.9311C60.9104 11.7677 60.1992 11.6587 59.2146 11.6043V10.7871C60.3633 10.8688 62.1138 10.9096 64.4659 10.9096C66.6539 10.9096 68.3907 10.8688 69.6762 10.7871V11.6043Z"/>
<path d="M98.0604 11.6043C97.1031 11.6587 96.392 11.8086 95.9271 12.0537C95.4621 12.2716 95.1476 12.653 94.9835 13.1978C94.8194 13.7154 94.7373 14.4917 94.7373 15.5268V35.8343H93.7937L77.3835 13.1978V30.8902C77.3835 31.9526 77.4656 32.7425 77.6297 33.2601C77.8211 33.7777 78.1767 34.159 78.6963 34.4042C79.216 34.6221 80.0228 34.7583 81.1168 34.8128V35.63C80.1322 35.5483 78.7374 35.5074 76.9322 35.5074C75.2912 35.5074 74.0194 35.5483 73.1169 35.63V34.8128C74.0741 34.7583 74.7852 34.6221 75.2502 34.4042C75.7151 34.159 76.0297 33.7777 76.1938 33.2601C76.3579 32.7153 76.4399 31.9253 76.4399 30.8902V15.1182C76.4399 14.0831 76.3579 13.334 76.1938 12.8709C76.0297 12.4078 75.7151 12.0946 75.2502 11.9311C74.8126 11.7677 74.1015 11.6587 73.1169 11.6043V10.7871C74.0194 10.8688 75.2912 10.9096 76.9322 10.9096C78.4092 10.9096 79.6673 10.8688 80.7066 10.7871L93.7937 28.9289V15.5268C93.7937 14.4645 93.698 13.6745 93.5066 13.1569C93.3425 12.6394 93.0006 12.2716 92.4809 12.0537C91.9613 11.8086 91.1544 11.6587 90.0604 11.6043V10.7871C91.045 10.8688 92.4399 10.9096 94.245 10.9096C95.886 10.9096 97.1578 10.8688 98.0604 10.7871V11.6043Z"/>
<path d="M111.423 11.6043C110.438 11.6587 109.713 11.7677 109.249 11.9311C108.811 12.0946 108.51 12.4078 108.346 12.8709C108.182 13.334 108.1 14.0831 108.1 15.1182V31.2988C108.1 32.3339 108.182 33.083 108.346 33.5461C108.51 34.0092 108.811 34.3225 109.249 34.4859C109.713 34.6493 110.438 34.7583 111.423 34.8128V35.63C110.165 35.5483 108.428 35.5074 106.213 35.5074C103.86 35.5074 102.11 35.5483 100.961 35.63V34.8128C101.946 34.7583 102.657 34.6493 103.095 34.4859C103.56 34.3225 103.874 34.0092 104.038 33.5461C104.202 33.083 104.284 32.3339 104.284 31.2988V15.1182C104.284 14.0831 104.202 13.334 104.038 12.8709C103.874 12.4078 103.56 12.0946 103.095 11.9311C102.657 11.7677 101.946 11.6587 100.961 11.6043V10.7871C102.11 10.8688 103.86 10.9096 106.213 10.9096C108.401 10.9096 110.137 10.8688 111.423 10.7871V11.6043Z"/>
<path d="M139.11 11.6043C138.152 11.6587 137.441 11.8086 136.976 12.0537C136.511 12.2716 136.197 12.653 136.033 13.1978C135.869 13.7154 135.787 14.4917 135.787 15.5268V24.5569C135.787 26.4365 135.65 28.0436 135.376 29.3784C135.13 30.6859 134.706 31.83 134.105 32.8106C133.448 33.8458 132.491 34.6766 131.233 35.3031C130.002 35.9024 128.593 36.202 127.007 36.202C124.19 36.202 122.029 35.6027 120.525 34.4042C119.322 33.3418 118.515 32.1296 118.105 30.7676C117.694 29.4056 117.489 27.3762 117.489 24.6795V15.1182C117.489 14.0831 117.407 13.334 117.243 12.8709C117.079 12.4078 116.764 12.0946 116.299 11.9311C115.862 11.7677 115.151 11.6587 114.166 11.6043V10.7871C115.315 10.8688 117.065 10.9096 119.417 10.9096C121.605 10.9096 123.342 10.8688 124.628 10.7871V11.6043C123.643 11.6587 122.918 11.7677 122.453 11.9311C122.016 12.0946 121.715 12.4078 121.551 12.8709C121.387 13.334 121.305 14.0831 121.305 15.1182V25.3741C121.305 27.3899 121.441 29.0651 121.715 30.3999C121.988 31.7074 122.563 32.7698 123.438 33.587C124.34 34.3769 125.653 34.7719 127.376 34.7719C130.111 34.7719 132.04 33.9139 133.161 32.1977C134.282 30.4816 134.843 28.0845 134.843 25.0064V15.5268C134.843 14.0559 134.57 13.048 134.023 12.5032C133.503 11.9584 132.532 11.6587 131.11 11.6043V10.7871C132.094 10.8688 133.489 10.9096 135.294 10.9096C136.935 10.9096 138.207 10.8688 139.11 10.7871V11.6043ZM130.864 0.4086C131.301 0.1362 131.711 0 132.094 0C132.614 0 133.038 0.231541 133.366 0.694622C133.53 0.939782 133.612 1.19856 133.612 1.47096C133.612 2.07024 133.243 2.60142 132.505 3.0645C131.93 3.41863 130.946 3.85447 129.551 4.37203C127.499 5.18923 125.735 5.96557 124.258 6.70105L123.971 6.16987C125.093 5.32543 126.05 4.54909 126.843 3.84085C127.664 3.10536 128.17 2.6559 128.361 2.49246C129.373 1.53906 130.207 0.844442 130.864 0.4086Z"/>
<path d="M150.646 10.215C151.85 10.215 152.793 10.3512 153.477 10.6236C154.188 10.8688 154.913 11.2365 155.651 11.7268C156.253 12.1082 156.718 12.2989 157.046 12.2989C157.292 12.2989 157.484 12.1627 157.621 11.8903C157.757 11.5906 157.867 11.1276 157.949 10.501H158.892C158.756 11.9175 158.687 14.4236 158.687 18.0193H157.744C157.579 16.058 156.937 14.3964 155.815 13.0344C154.721 11.6724 153.121 10.9914 151.015 10.9914C149.566 10.9914 148.362 11.3727 147.405 12.1354C146.475 12.8982 146.01 13.8652 146.01 15.0365C146.01 15.8809 146.215 16.6164 146.626 17.2429C147.063 17.8695 147.61 18.4143 148.267 18.8774C148.95 19.3132 149.908 19.858 151.138 20.5118L152.492 21.2472C154.188 22.1462 155.542 22.9497 156.554 23.658C157.593 24.3662 158.427 25.1834 159.056 26.1096C159.685 27.0085 160 28.0572 160 29.2558C160 31.4623 159.193 33.1784 157.58 34.4042C155.993 35.6027 153.997 36.202 151.59 36.202C150.277 36.202 149.197 36.0658 148.349 35.7934C147.528 35.521 146.735 35.1533 145.969 34.6902C145.368 34.3088 144.903 34.1182 144.574 34.1182C144.328 34.1182 144.137 34.268 144 34.5676C143.863 34.84 143.754 35.2895 143.672 35.916H142.728C142.838 34.5812 142.892 31.5848 142.892 26.9268H143.836C144.027 29.4601 144.711 31.5031 145.887 33.0558C147.063 34.6085 148.868 35.3848 151.303 35.3848C152.67 35.3848 153.846 35.0035 154.831 34.2407C155.843 33.4508 156.349 32.2931 156.349 30.7676C156.349 29.8687 156.089 29.0787 155.569 28.3977C155.05 27.6895 154.352 27.063 153.477 26.5182C152.602 25.9734 151.385 25.2924 149.826 24.4752C147.583 23.3311 145.874 22.187 144.697 21.0429C143.521 19.8989 142.933 18.4143 142.933 16.5892C142.933 14.5734 143.672 13.0071 145.149 11.8903C146.653 10.7734 148.486 10.215 150.646 10.215Z"/>
</svg>
