<?xml version="1.0" encoding="UTF-8" standalone="no"?>
<!DOCTYPE svg PUBLIC "-//W3C//DTD SVG 1.1//EN"
 "http://www.w3.org/Graphics/SVG/1.1/DTD/svg11.dtd">
<!-- Generated by graphviz version 2.47.3 (20210619.1520)
 -->
<!-- Title: dependencies Pages: 1 -->
<svg width="764pt" height="247pt"
 viewBox="0.00 0.00 764.00 246.80" xmlns="http://www.w3.org/2000/svg" xmlns:xlink="http://www.w3.org/1999/xlink">
<g id="graph0" class="graph" transform="scale(1 1) rotate(0) translate(4 242.8)">
<title>dependencies</title>
<polygon fill="white" stroke="transparent" points="-4,4 -4,-242.8 760,-242.8 760,4 -4,4"/>
<text text-anchor="middle" x="378" y="-8.2" font-family="sans-serif" font-size="14.00">dependencies</text>
<g id="clust1" class="cluster">
<title>cluster_NewsModule</title>
<polygon fill="none" stroke="black" stroke-dasharray="1,5" points="8,-32.8 8,-230.8 748,-230.8 748,-32.8 8,-32.8"/>
</g>
<g id="clust7" class="cluster">
<title>cluster_NewsModule_exports</title>
<polygon fill="none" stroke="black" points="304,-170.8 304,-222.8 436,-222.8 436,-170.8 304,-170.8"/>
</g>
<g id="clust2" class="cluster">
<title>cluster_NewsModule_declarations</title>
<polygon fill="none" stroke="black" points="292,-40.8 292,-92.8 740,-92.8 740,-40.8 292,-40.8"/>
</g>
<g id="clust6" class="cluster">
<title>cluster_NewsModule_imports</title>
<polygon fill="none" stroke="black" points="16,-40.8 16,-92.8 284,-92.8 284,-40.8 16,-40.8"/>
</g>
<!-- NewsBodyComponent -->
<g id="node1" class="node">
<title>NewsBodyComponent</title>
<polygon fill="#ffffb3" stroke="black" points="731.54,-84.8 588.46,-84.8 588.46,-48.8 731.54,-48.8 731.54,-84.8"/>
<text text-anchor="middle" x="660" y="-62.6" font-family="Times,serif" font-size="14.00">NewsBodyComponent</text>
</g>
<!-- NewsModule -->
<g id="node4" class="node">
<title>NewsModule</title>
<polygon fill="#8dd3c7" stroke="black" points="415.92,-149.8 412.92,-153.8 391.92,-153.8 388.92,-149.8 324.08,-149.8 324.08,-113.8 415.92,-113.8 415.92,-149.8"/>
<text text-anchor="middle" x="370" y="-127.6" font-family="Times,serif" font-size="14.00">NewsModule</text>
</g>
<!-- NewsBodyComponent&#45;&gt;NewsModule -->
<g id="edge1" class="edge">
<title>NewsBodyComponent&#45;&gt;NewsModule</title>
<path fill="none" stroke="black" d="M660,-85.08C660,-106.12 660,-137.8 660,-137.8 660,-137.8 425.95,-137.8 425.95,-137.8"/>
<polygon fill="black" stroke="black" points="425.95,-134.3 415.95,-137.8 425.95,-141.3 425.95,-134.3"/>
</g>
<!-- NewsComponent -->
<g id="node2" class="node">
<title>NewsComponent</title>
<polygon fill="#ffffb3" stroke="black" points="570.7,-84.8 457.3,-84.8 457.3,-48.8 570.7,-48.8 570.7,-84.8"/>
<text text-anchor="middle" x="514" y="-62.6" font-family="Times,serif" font-size="14.00">NewsComponent</text>
</g>
<!-- NewsComponent&#45;&gt;NewsModule -->
<g id="edge2" class="edge">
<title>NewsComponent&#45;&gt;NewsModule</title>
<path fill="none" stroke="black" d="M514,-84.82C514,-102.17 514,-125.8 514,-125.8 514,-125.8 425.96,-125.8 425.96,-125.8"/>
<polygon fill="black" stroke="black" points="425.96,-122.3 415.96,-125.8 425.96,-129.3 425.96,-122.3"/>
</g>
<!-- NewsDataComponent -->
<g id="node3" class="node">
<title>NewsDataComponent</title>
<polygon fill="#ffffb3" stroke="black" points="439.63,-84.8 300.37,-84.8 300.37,-48.8 439.63,-48.8 439.63,-84.8"/>
<text text-anchor="middle" x="370" y="-62.6" font-family="Times,serif" font-size="14.00">NewsDataComponent</text>
</g>
<!-- NewsDataComponent&#45;&gt;NewsModule -->
<g id="edge3" class="edge">
<title>NewsDataComponent&#45;&gt;NewsModule</title>
<path fill="none" stroke="black" d="M370,-84.91C370,-84.91 370,-103.79 370,-103.79"/>
<polygon fill="black" stroke="black" points="366.5,-103.79 370,-113.79 373.5,-103.79 366.5,-103.79"/>
</g>
<!-- NewsComponent  -->
<g id="node7" class="node">
<title>NewsComponent </title>
<polygon fill="#fb8072" stroke="black" points="428.21,-214.8 311.79,-214.8 311.79,-178.8 428.21,-178.8 428.21,-214.8"/>
<text text-anchor="middle" x="370" y="-192.6" font-family="Times,serif" font-size="14.00">NewsComponent </text>
</g>
<!-- NewsModule&#45;&gt;NewsComponent  -->
<g id="edge6" class="edge">
<title>NewsModule&#45;&gt;NewsComponent </title>
<path fill="none" stroke="black" stroke-dasharray="5,2" d="M370,-149.91C370,-149.91 370,-168.79 370,-168.79"/>
<polygon fill="black" stroke="black" points="366.5,-168.79 370,-178.79 373.5,-168.79 366.5,-168.79"/>
</g>
<!-- NewsRoutingModule -->
<g id="node5" class="node">
<title>NewsRoutingModule</title>
<polygon fill="#8dd3c7" stroke="black" points="276.04,-84.8 273.04,-88.8 252.04,-88.8 249.04,-84.8 139.96,-84.8 139.96,-48.8 276.04,-48.8 276.04,-84.8"/>
<text text-anchor="middle" x="208" y="-62.6" font-family="Times,serif" font-size="14.00">NewsRoutingModule</text>
</g>
<!-- NewsRoutingModule&#45;&gt;NewsModule -->
<g id="edge4" class="edge">
<title>NewsRoutingModule&#45;&gt;NewsModule</title>
<path fill="none" stroke="black" d="M208,-84.82C208,-102.17 208,-125.8 208,-125.8 208,-125.8 314.01,-125.8 314.01,-125.8"/>
<polygon fill="black" stroke="black" points="314.01,-129.3 324.01,-125.8 314.01,-122.3 314.01,-129.3"/>
</g>
<!-- SharedModule -->
<g id="node6" class="node">
<title>SharedModule</title>
<polygon fill="#8dd3c7" stroke="black" points="122.42,-84.8 119.42,-88.8 98.42,-88.8 95.42,-84.8 23.58,-84.8 23.58,-48.8 122.42,-48.8 122.42,-84.8"/>
<text text-anchor="middle" x="73" y="-62.6" font-family="Times,serif" font-size="14.00">SharedModule</text>
</g>
<!-- SharedModule&#45;&gt;NewsModule -->
<g id="edge5" class="edge">
<title>SharedModule&#45;&gt;NewsModule</title>
<path fill="none" stroke="black" d="M73,-85.08C73,-106.12 73,-137.8 73,-137.8 73,-137.8 314.24,-137.8 314.24,-137.8"/>
<polygon fill="black" stroke="black" points="314.24,-141.3 324.24,-137.8 314.24,-134.3 314.24,-141.3"/>
</g>
</g>
</svg>
