<?xml version="1.0" encoding="UTF-8" standalone="no"?>
<!DOCTYPE svg PUBLIC "-//W3C//DTD SVG 1.1//EN"
 "http://www.w3.org/Graphics/SVG/1.1/DTD/svg11.dtd">
<!-- Generated by graphviz version 2.47.3 (20210619.1520)
 -->
<!-- Title: dependencies Pages: 1 -->
<svg width="1193pt" height="247pt"
 viewBox="0.00 0.00 1193.00 246.80" xmlns="http://www.w3.org/2000/svg" xmlns:xlink="http://www.w3.org/1999/xlink">
<g id="graph0" class="graph" transform="scale(1 1) rotate(0) translate(4 242.8)">
<title>dependencies</title>
<polygon fill="white" stroke="transparent" points="-4,4 -4,-242.8 1189,-242.8 1189,4 -4,4"/>
<text text-anchor="middle" x="592.5" y="-8.2" font-family="sans-serif" font-size="14.00">dependencies</text>
<g id="clust1" class="cluster">
<title>cluster_SharedModule</title>
<polygon fill="none" stroke="black" stroke-dasharray="1,5" points="8,-32.8 8,-230.8 1177,-230.8 1177,-32.8 8,-32.8"/>
</g>
<g id="clust12" class="cluster">
<title>cluster_SharedModule_exports</title>
<polygon fill="none" stroke="black" points="144,-170.8 144,-222.8 990,-222.8 990,-170.8 144,-170.8"/>
</g>
<g id="clust2" class="cluster">
<title>cluster_SharedModule_declarations</title>
<polygon fill="none" stroke="black" points="16,-40.8 16,-92.8 1169,-92.8 1169,-40.8 16,-40.8"/>
</g>
<!-- A11yFormComponent -->
<g id="node1" class="node">
<title>A11yFormComponent</title>
<polygon fill="#ffffb3" stroke="black" points="1161.27,-84.8 1018.73,-84.8 1018.73,-48.8 1161.27,-48.8 1161.27,-84.8"/>
<text text-anchor="middle" x="1090" y="-62.6" font-family="Times,serif" font-size="14.00">A11yFormComponent</text>
</g>
<!-- SharedModule -->
<g id="node9" class="node">
<title>SharedModule</title>
<polygon fill="#8dd3c7" stroke="black" points="613.42,-149.8 610.42,-153.8 589.42,-153.8 586.42,-149.8 514.58,-149.8 514.58,-113.8 613.42,-113.8 613.42,-149.8"/>
<text text-anchor="middle" x="564" y="-127.6" font-family="Times,serif" font-size="14.00">SharedModule</text>
</g>
<!-- A11yFormComponent&#45;&gt;SharedModule -->
<g id="edge1" class="edge">
<title>A11yFormComponent&#45;&gt;SharedModule</title>
<path fill="none" stroke="black" d="M1090,-84.91C1090,-104.14 1090,-131.8 1090,-131.8 1090,-131.8 623.48,-131.8 623.48,-131.8"/>
<polygon fill="black" stroke="black" points="623.48,-128.3 613.48,-131.8 623.48,-135.3 623.48,-128.3"/>
</g>
<!-- A11yModalComponent -->
<g id="node2" class="node">
<title>A11yModalComponent</title>
<polygon fill="#ffffb3" stroke="black" points="1000.49,-84.8 851.51,-84.8 851.51,-48.8 1000.49,-48.8 1000.49,-84.8"/>
<text text-anchor="middle" x="926" y="-62.6" font-family="Times,serif" font-size="14.00">A11yModalComponent</text>
</g>
<!-- A11yModalComponent&#45;&gt;SharedModule -->
<g id="edge2" class="edge">
<title>A11yModalComponent&#45;&gt;SharedModule</title>
<path fill="none" stroke="black" d="M855.91,-84.82C855.91,-102.17 855.91,-125.8 855.91,-125.8 855.91,-125.8 623.52,-125.8 623.52,-125.8"/>
<polygon fill="black" stroke="black" points="623.52,-122.3 613.52,-125.8 623.52,-129.3 623.52,-122.3"/>
</g>
<!-- FooterComponent -->
<g id="node3" class="node">
<title>FooterComponent</title>
<polygon fill="#ffffb3" stroke="black" points="833.88,-84.8 716.12,-84.8 716.12,-48.8 833.88,-48.8 833.88,-84.8"/>
<text text-anchor="middle" x="775" y="-62.6" font-family="Times,serif" font-size="14.00">FooterComponent</text>
</g>
<!-- FooterComponent&#45;&gt;SharedModule -->
<g id="edge3" class="edge">
<title>FooterComponent&#45;&gt;SharedModule</title>
<path fill="none" stroke="black" d="M795.09,-85.04C795.09,-100.37 795.09,-119.8 795.09,-119.8 795.09,-119.8 623.29,-119.8 623.29,-119.8"/>
<polygon fill="black" stroke="black" points="623.29,-116.3 613.29,-119.8 623.29,-123.3 623.29,-116.3"/>
</g>
<!-- HeaderComponent -->
<g id="node4" class="node">
<title>HeaderComponent</title>
<polygon fill="#ffffb3" stroke="black" points="697.74,-84.8 576.26,-84.8 576.26,-48.8 697.74,-48.8 697.74,-84.8"/>
<text text-anchor="middle" x="637" y="-62.6" font-family="Times,serif" font-size="14.00">HeaderComponent</text>
</g>
<!-- HeaderComponent&#45;&gt;SharedModule -->
<g id="edge4" class="edge">
<title>HeaderComponent&#45;&gt;SharedModule</title>
<path fill="none" stroke="black" d="M594.67,-84.91C594.67,-84.91 594.67,-103.79 594.67,-103.79"/>
<polygon fill="black" stroke="black" points="591.17,-103.79 594.67,-113.79 598.17,-103.79 591.17,-103.79"/>
</g>
<!-- HeadlineComponent -->
<g id="node5" class="node">
<title>HeadlineComponent</title>
<polygon fill="#ffffb3" stroke="black" points="557.86,-84.8 426.14,-84.8 426.14,-48.8 557.86,-48.8 557.86,-84.8"/>
<text text-anchor="middle" x="492" y="-62.6" font-family="Times,serif" font-size="14.00">HeadlineComponent</text>
</g>
<!-- HeadlineComponent&#45;&gt;SharedModule -->
<g id="edge5" class="edge">
<title>HeadlineComponent&#45;&gt;SharedModule</title>
<path fill="none" stroke="black" d="M536.36,-84.91C536.36,-84.91 536.36,-103.79 536.36,-103.79"/>
<polygon fill="black" stroke="black" points="532.86,-103.79 536.36,-113.79 539.86,-103.79 532.86,-103.79"/>
</g>
<!-- ImgNewsPipe -->
<g id="node6" class="node">
<title>ImgNewsPipe</title>
<polygon fill="#ffffb3" stroke="black" points="407.81,-84.8 312.19,-84.8 312.19,-48.8 407.81,-48.8 407.81,-84.8"/>
<text text-anchor="middle" x="360" y="-62.6" font-family="Times,serif" font-size="14.00">ImgNewsPipe</text>
</g>
<!-- ImgNewsPipe&#45;&gt;SharedModule -->
<g id="edge6" class="edge">
<title>ImgNewsPipe&#45;&gt;SharedModule</title>
<path fill="none" stroke="black" d="M360,-85.04C360,-100.37 360,-119.8 360,-119.8 360,-119.8 504.62,-119.8 504.62,-119.8"/>
<polygon fill="black" stroke="black" points="504.62,-123.3 514.62,-119.8 504.62,-116.3 504.62,-123.3"/>
</g>
<!-- LoadingComponent -->
<g id="node7" class="node">
<title>LoadingComponent</title>
<polygon fill="#ffffb3" stroke="black" points="293.99,-84.8 166.01,-84.8 166.01,-48.8 293.99,-48.8 293.99,-84.8"/>
<text text-anchor="middle" x="230" y="-62.6" font-family="Times,serif" font-size="14.00">LoadingComponent</text>
</g>
<!-- LoadingComponent&#45;&gt;SharedModule -->
<g id="edge7" class="edge">
<title>LoadingComponent&#45;&gt;SharedModule</title>
<path fill="none" stroke="black" d="M286.9,-84.82C286.9,-102.17 286.9,-125.8 286.9,-125.8 286.9,-125.8 504.78,-125.8 504.78,-125.8"/>
<polygon fill="black" stroke="black" points="504.78,-129.3 514.78,-125.8 504.78,-122.3 504.78,-129.3"/>
</g>
<!-- SidebarComponent -->
<g id="node8" class="node">
<title>SidebarComponent</title>
<polygon fill="#ffffb3" stroke="black" points="148.1,-84.8 23.9,-84.8 23.9,-48.8 148.1,-48.8 148.1,-84.8"/>
<text text-anchor="middle" x="86" y="-62.6" font-family="Times,serif" font-size="14.00">SidebarComponent</text>
</g>
<!-- SidebarComponent&#45;&gt;SharedModule -->
<g id="edge8" class="edge">
<title>SidebarComponent&#45;&gt;SharedModule</title>
<path fill="none" stroke="black" d="M86,-84.91C86,-104.14 86,-131.8 86,-131.8 86,-131.8 504.65,-131.8 504.65,-131.8"/>
<polygon fill="black" stroke="black" points="504.65,-135.3 514.65,-131.8 504.65,-128.3 504.65,-135.3"/>
</g>
<!-- FooterComponent  -->
<g id="node10" class="node">
<title>FooterComponent </title>
<polygon fill="#fb8072" stroke="black" points="981.88,-214.8 860.12,-214.8 860.12,-178.8 981.88,-178.8 981.88,-214.8"/>
<text text-anchor="middle" x="921" y="-192.6" font-family="Times,serif" font-size="14.00">FooterComponent </text>
</g>
<!-- SharedModule&#45;&gt;FooterComponent  -->
<g id="edge9" class="edge">
<title>SharedModule&#45;&gt;FooterComponent </title>
<path fill="none" stroke="black" stroke-dasharray="5,2" d="M613.26,-137.8C711.2,-137.8 921,-137.8 921,-137.8 921,-137.8 921,-168.78 921,-168.78"/>
<polygon fill="black" stroke="black" points="917.5,-168.78 921,-178.78 924.5,-168.78 917.5,-168.78"/>
</g>
<!-- HeaderComponent  -->
<g id="node11" class="node">
<title>HeaderComponent </title>
<polygon fill="#fb8072" stroke="black" points="842.74,-214.8 717.26,-214.8 717.26,-178.8 842.74,-178.8 842.74,-214.8"/>
<text text-anchor="middle" x="780" y="-192.6" font-family="Times,serif" font-size="14.00">HeaderComponent </text>
</g>
<!-- SharedModule&#45;&gt;HeaderComponent  -->
<g id="edge10" class="edge">
<title>SharedModule&#45;&gt;HeaderComponent </title>
<path fill="none" stroke="black" stroke-dasharray="5,2" d="M613.5,-143.8C670.46,-143.8 756.23,-143.8 756.23,-143.8 756.23,-143.8 756.23,-168.56 756.23,-168.56"/>
<polygon fill="black" stroke="black" points="752.73,-168.56 756.23,-178.56 759.73,-168.56 752.73,-168.56"/>
</g>
<!-- HeadlineComponent  -->
<g id="node12" class="node">
<title>HeadlineComponent </title>
<polygon fill="#fb8072" stroke="black" points="699.86,-214.8 564.14,-214.8 564.14,-178.8 699.86,-178.8 699.86,-214.8"/>
<text text-anchor="middle" x="632" y="-192.6" font-family="Times,serif" font-size="14.00">HeadlineComponent </text>
</g>
<!-- SharedModule&#45;&gt;HeadlineComponent  -->
<g id="edge11" class="edge">
<title>SharedModule&#45;&gt;HeadlineComponent </title>
<path fill="none" stroke="black" stroke-dasharray="5,2" d="M588.76,-149.91C588.76,-149.91 588.76,-168.79 588.76,-168.79"/>
<polygon fill="black" stroke="black" points="585.26,-168.79 588.76,-178.79 592.26,-168.79 585.26,-168.79"/>
</g>
<!-- ImgNewsPipe  -->
<g id="node13" class="node">
<title>ImgNewsPipe </title>
<polygon fill="#fb8072" stroke="black" points="546.31,-214.8 447.69,-214.8 447.69,-178.8 546.31,-178.8 546.31,-214.8"/>
<text text-anchor="middle" x="497" y="-192.6" font-family="Times,serif" font-size="14.00">ImgNewsPipe </text>
</g>
<!-- SharedModule&#45;&gt;ImgNewsPipe  -->
<g id="edge12" class="edge">
<title>SharedModule&#45;&gt;ImgNewsPipe </title>
<path fill="none" stroke="black" stroke-dasharray="5,2" d="M530.6,-149.91C530.6,-149.91 530.6,-168.79 530.6,-168.79"/>
<polygon fill="black" stroke="black" points="527.1,-168.79 530.6,-178.79 534.1,-168.79 527.1,-168.79"/>
</g>
<!-- LoadingComponent  -->
<g id="node14" class="node">
<title>LoadingComponent </title>
<polygon fill="#fb8072" stroke="black" points="429.99,-214.8 298.01,-214.8 298.01,-178.8 429.99,-178.8 429.99,-214.8"/>
<text text-anchor="middle" x="364" y="-192.6" font-family="Times,serif" font-size="14.00">LoadingComponent </text>
</g>
<!-- SharedModule&#45;&gt;LoadingComponent  -->
<g id="edge13" class="edge">
<title>SharedModule&#45;&gt;LoadingComponent </title>
<path fill="none" stroke="black" stroke-dasharray="5,2" d="M514.6,-143.8C471.85,-143.8 416.86,-143.8 416.86,-143.8 416.86,-143.8 416.86,-168.56 416.86,-168.56"/>
<polygon fill="black" stroke="black" points="413.36,-168.56 416.86,-178.56 420.36,-168.56 413.36,-168.56"/>
</g>
<!-- SidebarComponent  -->
<g id="node15" class="node">
<title>SidebarComponent </title>
<polygon fill="#fb8072" stroke="black" points="279.6,-214.8 152.4,-214.8 152.4,-178.8 279.6,-178.8 279.6,-214.8"/>
<text text-anchor="middle" x="216" y="-192.6" font-family="Times,serif" font-size="14.00">SidebarComponent </text>
</g>
<!-- SharedModule&#45;&gt;SidebarComponent  -->
<g id="edge14" class="edge">
<title>SharedModule&#45;&gt;SidebarComponent </title>
<path fill="none" stroke="black" stroke-dasharray="5,2" d="M514.77,-137.8C420.3,-137.8 222.9,-137.8 222.9,-137.8 222.9,-137.8 222.9,-168.78 222.9,-168.78"/>
<polygon fill="black" stroke="black" points="219.4,-168.78 222.9,-178.78 226.4,-168.78 219.4,-168.78"/>
</g>
</g>
</svg>
