<?xml version="1.0" encoding="UTF-8" standalone="no"?>
<!DOCTYPE svg PUBLIC "-//W3C//DTD SVG 1.1//EN"
 "http://www.w3.org/Graphics/SVG/1.1/DTD/svg11.dtd">
<!-- Generated by graphviz version 2.47.3 (20210619.1520)
 -->
<!-- Title: dependencies Pages: 1 -->
<svg width="1035pt" height="247pt"
 viewBox="0.00 0.00 1035.00 246.80" xmlns="http://www.w3.org/2000/svg" xmlns:xlink="http://www.w3.org/1999/xlink">
<g id="graph0" class="graph" transform="scale(1 1) rotate(0) translate(4 242.8)">
<title>dependencies</title>
<polygon fill="white" stroke="transparent" points="-4,4 -4,-242.8 1031,-242.8 1031,4 -4,4"/>
<text text-anchor="middle" x="513.5" y="-8.2" font-family="sans-serif" font-size="14.00">dependencies</text>
<g id="clust1" class="cluster">
<title>cluster_SectionsModule</title>
<polygon fill="none" stroke="black" stroke-dasharray="1,5" points="8,-32.8 8,-230.8 1019,-230.8 1019,-32.8 8,-32.8"/>
</g>
<g id="clust8" class="cluster">
<title>cluster_SectionsModule_imports</title>
<polygon fill="none" stroke="black" points="727,-40.8 727,-92.8 1011,-92.8 1011,-40.8 727,-40.8"/>
</g>
<g id="clust2" class="cluster">
<title>cluster_SectionsModule_declarations</title>
<polygon fill="none" stroke="black" points="16,-40.8 16,-92.8 719,-92.8 719,-40.8 16,-40.8"/>
</g>
<g id="clust9" class="cluster">
<title>cluster_SectionsModule_exports</title>
<polygon fill="none" stroke="black" points="432,-170.8 432,-222.8 580,-222.8 580,-170.8 432,-170.8"/>
</g>
<!-- CienciaComponent -->
<g id="node1" class="node">
<title>CienciaComponent</title>
<polygon fill="#ffffb3" stroke="black" points="711.09,-84.8 586.91,-84.8 586.91,-48.8 711.09,-48.8 711.09,-84.8"/>
<text text-anchor="middle" x="649" y="-62.6" font-family="Times,serif" font-size="14.00">CienciaComponent</text>
</g>
<!-- SectionsModule -->
<g id="node6" class="node">
<title>SectionsModule</title>
<polygon fill="#8dd3c7" stroke="black" points="559.49,-149.8 556.49,-153.8 535.49,-153.8 532.49,-149.8 452.51,-149.8 452.51,-113.8 559.49,-113.8 559.49,-149.8"/>
<text text-anchor="middle" x="506" y="-127.6" font-family="Times,serif" font-size="14.00">SectionsModule</text>
</g>
<!-- CienciaComponent&#45;&gt;SectionsModule -->
<g id="edge1" class="edge">
<title>CienciaComponent&#45;&gt;SectionsModule</title>
<path fill="none" stroke="black" d="M649,-84.83C649,-101.2 649,-122.8 649,-122.8 649,-122.8 569.65,-122.8 569.65,-122.8"/>
<polygon fill="black" stroke="black" points="569.65,-119.3 559.65,-122.8 569.65,-126.3 569.65,-119.3"/>
</g>
<!-- DeporteComponent -->
<g id="node2" class="node">
<title>DeporteComponent</title>
<polygon fill="#ffffb3" stroke="black" points="569.42,-84.8 442.58,-84.8 442.58,-48.8 569.42,-48.8 569.42,-84.8"/>
<text text-anchor="middle" x="506" y="-62.6" font-family="Times,serif" font-size="14.00">DeporteComponent</text>
</g>
<!-- DeporteComponent&#45;&gt;SectionsModule -->
<g id="edge2" class="edge">
<title>DeporteComponent&#45;&gt;SectionsModule</title>
<path fill="none" stroke="black" d="M506,-84.91C506,-84.91 506,-103.79 506,-103.79"/>
<polygon fill="black" stroke="black" points="502.5,-103.79 506,-113.79 509.5,-103.79 502.5,-103.79"/>
</g>
<!-- PoliticsComponent -->
<g id="node3" class="node">
<title>PoliticsComponent</title>
<polygon fill="#ffffb3" stroke="black" points="424.84,-84.8 301.16,-84.8 301.16,-48.8 424.84,-48.8 424.84,-84.8"/>
<text text-anchor="middle" x="363" y="-62.6" font-family="Times,serif" font-size="14.00">PoliticsComponent</text>
</g>
<!-- PoliticsComponent&#45;&gt;SectionsModule -->
<g id="edge3" class="edge">
<title>PoliticsComponent&#45;&gt;SectionsModule</title>
<path fill="none" stroke="black" d="M363,-84.83C363,-101.2 363,-122.8 363,-122.8 363,-122.8 442.35,-122.8 442.35,-122.8"/>
<polygon fill="black" stroke="black" points="442.35,-126.3 452.35,-122.8 442.35,-119.3 442.35,-126.3"/>
</g>
<!-- SaludComponent -->
<g id="node4" class="node">
<title>SaludComponent</title>
<polygon fill="#ffffb3" stroke="black" points="283.72,-84.8 170.28,-84.8 170.28,-48.8 283.72,-48.8 283.72,-84.8"/>
<text text-anchor="middle" x="227" y="-62.6" font-family="Times,serif" font-size="14.00">SaludComponent</text>
</g>
<!-- SaludComponent&#45;&gt;SectionsModule -->
<g id="edge4" class="edge">
<title>SaludComponent&#45;&gt;SectionsModule</title>
<path fill="none" stroke="black" d="M227,-84.91C227,-104.14 227,-131.8 227,-131.8 227,-131.8 442.21,-131.8 442.21,-131.8"/>
<polygon fill="black" stroke="black" points="442.21,-135.3 452.21,-131.8 442.21,-128.3 442.21,-135.3"/>
</g>
<!-- SectionsComponent -->
<g id="node5" class="node">
<title>SectionsComponent</title>
<polygon fill="#ffffb3" stroke="black" points="152.27,-84.8 23.73,-84.8 23.73,-48.8 152.27,-48.8 152.27,-84.8"/>
<text text-anchor="middle" x="88" y="-62.6" font-family="Times,serif" font-size="14.00">SectionsComponent</text>
</g>
<!-- SectionsComponent&#45;&gt;SectionsModule -->
<g id="edge5" class="edge">
<title>SectionsComponent&#45;&gt;SectionsModule</title>
<path fill="none" stroke="black" d="M88,-85.09C88,-107.01 88,-140.8 88,-140.8 88,-140.8 442.21,-140.8 442.21,-140.8"/>
<polygon fill="black" stroke="black" points="442.21,-144.3 452.21,-140.8 442.21,-137.3 442.21,-144.3"/>
</g>
<!-- SectionsComponent  -->
<g id="node9" class="node">
<title>SectionsComponent </title>
<polygon fill="#fb8072" stroke="black" points="572.27,-214.8 439.73,-214.8 439.73,-178.8 572.27,-178.8 572.27,-214.8"/>
<text text-anchor="middle" x="506" y="-192.6" font-family="Times,serif" font-size="14.00">SectionsComponent </text>
</g>
<!-- SectionsModule&#45;&gt;SectionsComponent  -->
<g id="edge8" class="edge">
<title>SectionsModule&#45;&gt;SectionsComponent </title>
<path fill="none" stroke="black" stroke-dasharray="5,2" d="M506,-149.91C506,-149.91 506,-168.79 506,-168.79"/>
<polygon fill="black" stroke="black" points="502.5,-168.79 506,-178.79 509.5,-168.79 502.5,-168.79"/>
</g>
<!-- SectionsRoutingModule -->
<g id="node7" class="node">
<title>SectionsRoutingModule</title>
<polygon fill="#8dd3c7" stroke="black" points="1003.11,-84.8 1000.11,-88.8 979.11,-88.8 976.11,-84.8 850.89,-84.8 850.89,-48.8 1003.11,-48.8 1003.11,-84.8"/>
<text text-anchor="middle" x="927" y="-62.6" font-family="Times,serif" font-size="14.00">SectionsRoutingModule</text>
</g>
<!-- SectionsRoutingModule&#45;&gt;SectionsModule -->
<g id="edge6" class="edge">
<title>SectionsRoutingModule&#45;&gt;SectionsModule</title>
<path fill="none" stroke="black" d="M927,-85.09C927,-107.01 927,-140.8 927,-140.8 927,-140.8 569.75,-140.8 569.75,-140.8"/>
<polygon fill="black" stroke="black" points="569.75,-137.3 559.75,-140.8 569.75,-144.3 569.75,-137.3"/>
</g>
<!-- SharedModule -->
<g id="node8" class="node">
<title>SharedModule</title>
<polygon fill="#8dd3c7" stroke="black" points="833.42,-84.8 830.42,-88.8 809.42,-88.8 806.42,-84.8 734.58,-84.8 734.58,-48.8 833.42,-48.8 833.42,-84.8"/>
<text text-anchor="middle" x="784" y="-62.6" font-family="Times,serif" font-size="14.00">SharedModule</text>
</g>
<!-- SharedModule&#45;&gt;SectionsModule -->
<g id="edge7" class="edge">
<title>SharedModule&#45;&gt;SectionsModule</title>
<path fill="none" stroke="black" d="M784,-84.91C784,-104.14 784,-131.8 784,-131.8 784,-131.8 569.6,-131.8 569.6,-131.8"/>
<polygon fill="black" stroke="black" points="569.6,-128.3 559.6,-131.8 569.6,-135.3 569.6,-128.3"/>
</g>
</g>
</svg>
